# AST/ASF file generated using VICON BodyLanguage
# -----------------------------------------------
:version 1.10
:name VICON
:units
  mass 1.0
  length 0.45
  angle deg
:documentation
   .ast/.asf automatically generated from VICON data using
   VICON BodyBuilder and BodyLanguage model FoxedUp or BRILLIANT.MOD
:root
   order TX TY TZ RX RY RZ
   axis XYZ
   position 0 0 0  
   orientation 0 0 0 
:bonedata
  begin
     id 1 
     name lhipjoint
     direction 0.722297 -0.617336 0.311742 
     length 2.6635 
     axis 0 0 0  XYZ
  end
  begin
     id 2 
     name lfemur
     direction 0.34202 -0.939693 0  
     length 7.39349  
     axis 0 0 20  XYZ
    dof rx ry rz
    limits (-160.0 20.0)
           (-70.0 70.0)
           (-60.0 70.0)
  end
  begin
     id 3 
     name ltibia
     direction 0.34202 -0.939693 0   
     length 7.36294   
     axis 0 0 20   XYZ
    dof rx
    limits (-10.0 170.0)
  end
  begin
     id 4 
     name lfoot
     direction 0.104879 -0.288152 0.951824   
     length 2.16981   
     axis -90 7.62852e-016 20   XYZ
    dof rx rz
    limits (-45.0 90.0)
           (-70.0 20.0)
  end
  begin
     id 5 
     name ltoes
     direction 1.53586e-011 -4.21895e-011 1   
     length 1.08218   
     axis -90 7.62852e-016 20   XYZ
    dof rx
    limits (-90.0 20.0)
  end
  begin
     id 6 
     name rhipjoint
     direction -0.75102 -0.589393 0.297631   
     length 2.78977  
     axis 0 0 0  XYZ 
  end
  begin
     id 7 
     name rfemur
     direction -0.34202 -0.939693 0   
     length 7.46076   
     axis 0 0 -20   XYZ
    dof rx ry rz
    limits (-160.0 20.0)
           (-70.0 70.0)
           (-70.0 60.0)
  end
  begin
     id 8 
     name rtibia
     direction -0.34202 -0.939693 0   
     length 7.31726   
     axis 0 0 -20   XYZ
    dof rx
    limits (-10.0 170.0)
 end
 begin
     id 9 
     name rfoot
     direction -0.107991 -0.296704 0.948844   
     length 2.09388  
     axis -90 -7.62852e-016 -20   XYZ
    dof rx rz
    limits (-45.0 90.0)
           (-20.0 70.0)
  end
  begin
     id 10 
     name rtoes
     direction -1.53559e-011 -4.21911e-011 1   
     length 1.04433   
     axis -90 -7.62852e-016 -20   XYZ
    dof rx
    limits (-90.0 20.0)
  end
  begin
     id 11 
     name lowerback
     direction 0.0165164 0.98272 0.184358   
     length 1.71896   
     axis 0 0 0   XYZ
    dof rx ry rz
    limits (-20.0 45.0)
           (-30.0 30.0)
           (-30.0 30.0)
  end
  begin
     id 12 
     name upperback
     direction -0.00887249 0.992297 0.123566   
     length 1.71504   
     axis 0 0 0   XYZ
    dof rx ry rz
    limits (-20.0 45.0)
           (-30.0 30.0)
           (-30.0 30.0)
  end
  begin
     id 13 
     name thorax
     direction -0.0157026 0.998908 0.0440032   
     length 1.77022   
     axis 0 0 0   XYZ
    dof rx ry rz
    limits (-20.0 45.0)
           (-30.0 30.0)
           (-30.0 30.0)
  end
  begin
     id 14 
     name lowerneck
     direction -0.0238856 0.998137 0.0561411   
     length 1.89341   
     axis 0 0 0   XYZ
    dof rx ry rz
    limits (-20.0 45.0)
           (-30.0 30.0)
           (-30.0 30.0)
  end
  begin
     id 15 
     name upperneck
     direction 0.0276574 0.952253 -0.304056   
     length 1.86999   
     axis 0 0 0   XYZ
    dof rx ry rz
    limits (-20.0 45.0)
           (-30.0 30.0)
           (-30.0 30.0)
  end
  begin
     id 16
     name head
     direction 0.00800083 0.994258 -0.106712  
     length 1.91492  
     axis 0 0 0   XYZ
    dof rx ry rz
    limits (-20.0 45.0)
           (-30.0 30.0)
           (-30.0 30.0)
  end
  begin
     id 17 
     name lclavicle
     direction 0.97203 0.225407 0.06595  
     length 3.34889  
     axis 0 0 0   XYZ
    dof ry rz
    limits (-20.0 10.0)
           (0.0 20.0)
  end
  begin
     id 18 
     name lhumerus
     direction 1 -4.48973e-011 2.20267e-027   
     length 4.85645   
     axis 180 -30 -90   XYZ
    dof rx ry rz
    limits (-60.0 90.0)
           (-90.0 90.0)
           (-90.0 90.0)
  end
  begin
     id 19
     name lradius
     direction 1 -4.4897e-011 4.60472e-027   
     length 2.79874   
     axis 180 -30 -90   XYZ
    dof rx
    limits (-10.0 170.0)
  end
  begin
     id 20
     name lwrist
     direction 1 -4.48952e-011 1.14928e-026   
     length 1.39937   
     axis -6.29373e-015 90 90   XYZ
    dof ry
    limits (-180.0 0.0)
 end
  begin
     id 21 
     name lhand
     direction 1 -4.48967e-011 2.29886e-026   
     length 0.573398   
     axis -1.46689e-014 90 90   XYZ
    dof rx rz
    limits (-90.0 90.0)
           (-45.0 45.0)
  end
  begin
     id 22 
     name lfingers
     direction 1 -4.48955e-011 4.59726e-026   
     length 0.462289   
     axis -2.93383e-014 90 90   XYZ
    dof rx
    limits (0.0 90.0)
  end
  begin
     id 23
     name lthumb
     direction 0.707107 -6.34866e-011 0.707107   
     length 0.663757   
     axis -90 45 5.69224e-014   XYZ
    dof rx rz
    limits (-45.0 45.0)
           (-45.0 45.0)
  end
  begin
     id 24 
     name rclavicle
     direction -0.981571 0.157346 0.108443   
     length 3.35257  
     axis 0 0 0   XYZ 
    dof ry rz
    limits (-10.0 20.0)
           (-20.0 0.0)
  end
  begin
     id 25 
     name rhumerus
     direction -1 -4.48967e-011 8.58308e-029  
     length 4.67018   
     axis 180 30 90   XYZ
    dof rx ry rz
    limits (-90.0 60.0)
           (-90.0 90.0)
           (-90.0 90.0)
  end
  begin
     id 26 
     name rradius
     direction -1 -4.48958e-011 4.52548e-027   
     length 2.65534   
     axis 180 30 90   XYZ
    dof rx
    limits (-10.0 170.0)
  end
  begin
     id 27 
     name rwrist
     direction -1 -4.48977e-011 1.14952e-026   
     length 1.32767   
     axis -6.29373e-015 -90 -90   XYZ
    dof ry
    limits (-180.0 0.0)
  end
  begin
     id 28
     name rhand
     direction -1 -4.48924e-011 2.29804e-026   
     length 0.594069   
     axis -1.46689e-014 -90 -90   XYZ
    dof rx rz
    limits (-90.0 90.0)
           (-45.0 45.0)
  end
  begin
     id 29
     name rfingers
     direction -1 -4.48998e-011 4.59888e-026   
     length 0.478954   
     axis -2.93383e-014 -90 -90   XYZ
    dof rx
    limits (0.0 90.0)
  end
  begin
     id 30
     name rthumb
     direction -0.707107 -6.34933e-011 0.707107   
     length 0.687685   
     axis -90 -45 -5.69224e-014   XYZ
    dof rx rz
    limits (-45.0 45.0)
           (-45.0 45.0)
  end
:hierarchy
  begin
    root lhipjoint rhipjoint lowerback
    lhipjoint lfemur
    lfemur ltibia
    ltibia lfoot
    lfoot ltoes
    rhipjoint rfemur
    rfemur rtibia
    rtibia rfoot
    rfoot rtoes
    lowerback upperback
    upperback thorax
    thorax lowerneck lclavicle rclavicle
    lowerneck upperneck
    upperneck head
    lclavicle lhumerus
    lhumerus lradius
    lradius lwrist
    lwrist lhand lthumb
    lhand lfingers
    rclavicle rhumerus
    rhumerus rradius
    rradius rwrist
    rwrist rhand rthumb
    rhand rfingers
  end

#!OML:ASF E:\pregnant2\Project 1\Capture day 1\Session 1\pregnant2.ASF
:FULLY-SPECIFIED
:DEGREES
161
root -4.28438 15.7553 20.1522 28.2465 6.02145 -0.80038
lowerback -20.1729 0.99914 2.46073
upperback -16.0713 1.04697 -0.536323
thorax -6.28325 0.318502 -1.81457
lowerneck -15.7782 -3.12502 -3.81509
upperneck 35.2147 -4.49942 2.82141
head 15.0674 -2.0248 1.07226
rclavicle 1.81639e-014 -6.4605e-015
rhumerus -22.0976 6.00103 -79.1632
rradius 115.6
rwrist 37.0308
rhand -5.77073 -8.35094
rfingers 7.12502
rthumb 20.0527 -37.3361
lclavicle 1.81639e-014 -6.4605e-015
lhumerus -26.4285 -2.2523 79.9233
lradius 118.242
lwrist -28.1745
lhand -9.3147 15.6003
lfingers 7.12502
lthumb 16.6435 44.9067
rfemur -56.4664 -3.56833 20.4948
rtibia 61.7919
rfoot -27.5148 -13.7796
rtoes -14.4177
lfemur -57.212 6.54913 -19.8776
ltibia 61.1853
lfoot -27.3663 5.60645
ltoes -13.9106
162
root -4.28457 15.7547 20.152 28.2517 6.02842 -0.803092
lowerback -20.1747 0.999884 2.46053
upperback -16.0716 1.04799 -0.538683
thorax -6.28253 0.318965 -1.81685
lowerneck -15.7709 -3.11861 -3.80051
upperneck 35.2245 -4.48868 2.80502
head 15.0689 -2.02054 1.06493
rclavicle 2.89729e-014 6.41081e-015
rhumerus -22.0933 5.99441 -79.1639
rradius 115.603
rwrist 37.0353
rhand -5.78101 -8.3491
rfingers 7.12502
rthumb 20.0429 -37.3353
lclavicle 2.89729e-014 6.41081e-015
lhumerus -26.4268 -2.25093 79.923
lradius 118.242
lwrist -28.182
lhand -9.32294 15.5957
lfingers 7.12502
lthumb 16.6356 44.9027
rfemur -56.4764 -3.57079 20.5009
rtibia 61.8007
rfoot -27.5172 -13.7847
rtoes -14.4288
lfemur -57.2267 6.54912 -19.8737
ltibia 61.1969
lfoot -27.3681 5.59998
ltoes -13.9067
163
root -4.28475 15.7541 20.1518 28.2552 6.03719 -0.804776
lowerback -20.1758 0.998795 2.45965
upperback -16.0714 1.04673 -0.540266
thorax -6.28179 0.318371 -1.81823
lowerneck -15.7639 -3.11162 -3.78503
upperneck 35.236 -4.4762 2.78541
head 15.071 -2.01588 1.05639
rclavicle -2.00027e-015 -1.84373e-014
rhumerus -22.092 5.99016 -79.1683
rradius 115.606
rwrist 37.0376
rhand -5.78707 -8.34662
rfingers 7.12502
rthumb 20.037 -37.3335
lclavicle -2.00027e-015 -1.84373e-014
lhumerus -26.4275 -2.24782 79.9229
lradius 118.24
lwrist -28.189
lhand -9.33308 15.5903
lfingers 7.12502
lthumb 16.6258 44.8982
rfemur -56.485 -3.57709 20.5076
rtibia 61.8107
rfoot -27.5199 -13.7885
rtoes -14.4337
lfemur -57.2403 6.54767 -19.87
ltibia 61.2093
lfoot -27.3704 5.59185
ltoes -13.8998
164
root -4.28498 15.7533 20.1515 28.2578 6.04453 -0.804609
lowerback -20.1725 0.997191 2.45745
upperback -16.0751 1.04514 -0.542531
thorax -6.28792 0.317557 -1.81976
lowerneck -15.7465 -3.10394 -3.77111
upperneck 35.249 -4.46321 2.76744
head 15.0715 -2.01109 1.04907
rclavicle -4.28629e-015 1.24737e-014
rhumerus -22.0988 5.98724 -79.1757
rradius 115.603
rwrist 37.0468
rhand -5.80026 -8.33911
rfingers 7.12502
rthumb 20.0244 -37.3273
lclavicle -4.28629e-015 1.24737e-014
lhumerus -26.4367 -2.24356 79.9231
lradius 118.238
lwrist -28.201
lhand -9.3642 15.5807
lfingers 7.12502
lthumb 16.5958 44.8911
rfemur -56.4939 -3.5828 20.5118
rtibia 61.822
rfoot -27.5202 -13.7928
rtoes -14.4451
lfemur -57.253 6.54552 -19.8678
ltibia 61.2221
lfoot -27.3727 5.58371
ltoes -13.885
165
root -4.28534 15.7525 20.1513 28.2592 6.05168 -0.804129
lowerback -20.1707 0.994228 2.45212
upperback -16.0769 1.04215 -0.543554
thorax -6.29106 0.316443 -1.81835
lowerneck -15.734 -3.09453 -3.75385
upperneck 35.2627 -4.44731 2.7462
head 15.0731 -2.00501 1.04024
rclavicle 7.65321e-015 -1.99282e-014
rhumerus -22.1049 5.98651 -79.1844
rradius 115.599
rwrist 37.0556
rhand -5.80798 -8.3343
rfingers 7.12502
rthumb 20.0169 -37.3233
lclavicle 7.65321e-015 -1.99282e-014
lhumerus -26.4454 -2.23745 79.9247
lradius 118.237
lwrist -28.2092
lhand -9.38514 15.5677
lfingers 7.12502
lthumb 16.5757 44.8798
rfemur -56.5022 -3.58718 20.5155
rtibia 61.834
rfoot -27.5204 -13.7971
rtoes -14.4514
lfemur -57.2637 6.54412 -19.8661
ltibia 61.2346
lfoot -27.3746 5.57891
ltoes -13.8814
166
root -4.28573 15.7517 20.1512 28.2589 6.05779 -0.802993
lowerback -20.1686 0.992116 2.44589
upperback -16.0806 1.04044 -0.545606
thorax -6.29656 0.315961 -1.81738
lowerneck -15.7108 -3.08348 -3.73509
upperneck 35.2727 -4.42963 2.72515
head 15.0704 -1.99808 1.03165
rclavicle -1.36292e-014 -1.48095e-014
rhumerus -22.1177 5.98574 -79.1933
rradius 115.591
rwrist 37.0645
rhand -5.81592 -8.32794
rfingers 7.12502
rthumb 20.0093 -37.3177
lclavicle -1.36292e-014 -1.48095e-014
lhumerus -26.4626 -2.23441 79.9291
lradius 118.238
lwrist -28.2159
lhand -9.4015 15.5574
lfingers 7.12502
lthumb 16.5599 44.8708
rfemur -56.5079 -3.59085 20.5179
rtibia 61.8461
rfoot -27.5211 -13.7998
rtoes -14.4554
lfemur -57.2707 6.54373 -19.866
ltibia 61.2461
lfoot -27.3773 5.57821
ltoes -13.8883
167
root -4.28619 15.751 20.151 28.2572 6.06237 -0.800922
lowerback -20.1666 0.990181 2.43718
upperback -16.082 1.03924 -0.548078
thorax -6.29914 0.315995 -1.81537
lowerneck -15.6935 -3.07107 -3.71508
upperneck 35.2812 -4.41037 2.70507
head 15.0682 -1.99008 1.02345
rclavicle -6.55989e-015 1.77912e-014
rhumerus -22.1284 5.98589 -79.2026
rradius 115.585
rwrist 37.0692
rhand -5.81349 -8.32689
rfingers 7.12502
rthumb 20.0116 -37.3164
lclavicle -6.55989e-015 1.77912e-014
lhumerus -26.4792 -2.2328 79.9347
lradius 118.24
lwrist -28.2202
lhand -9.40418 15.5497
lfingers 7.12502
lthumb 16.5573 44.8633
rfemur -56.512 -3.59298 20.5186
rtibia 61.858
rfoot -27.5223 -13.8032
rtoes -14.4647
lfemur -57.2746 6.54419 -19.8672
ltibia 61.256
lfoot -27.3798 5.58003
ltoes -13.9032
168
root -4.28663 15.7503 20.151 28.2559 6.06553 -0.800067
lowerback -20.1689 0.98956 2.42842
upperback -16.081 1.03962 -0.550307
thorax -6.2968 0.316942 -1.81278
lowerneck -15.6789 -3.05651 -3.69133
upperneck 35.2852 -4.38822 2.68354
head 15.0642 -1.98052 1.01443
rclavicle -2.38542e-015 -8.34896e-015
rhumerus -22.1366 5.98708 -79.2097
rradius 115.579
rwrist 37.072
rhand -5.80704 -8.33158
rfingers 7.12502
rthumb 20.0178 -37.3204
lclavicle -2.38542e-015 -8.34896e-015
lhumerus -26.4962 -2.23257 79.9429
lradius 118.243
lwrist -28.2217
lhand -9.38779 15.5442
lfingers 7.12502
lthumb 16.5731 44.8565
rfemur -56.5157 -3.59341 20.5199
rtibia 61.8688
rfoot -27.5247 -13.8074
rtoes -14.4779
lfemur -57.2779 6.54637 -19.8677
ltibia 61.2645
lfoot -27.383 5.57951
ltoes -13.9121
169
root -4.28702 15.7498 20.1509 28.2542 6.0673 -0.797771
lowerback -20.1708 0.989669 2.41874
upperback -16.0807 1.04106 -0.554399
thorax -6.29534 0.318385 -1.81153
lowerneck -15.6621 -3.04073 -3.66248
upperneck 35.2871 -4.36475 2.65907
head 15.0584 -1.97014 1.00353
rclavicle -1.06101e-014 -9.24349e-015
rhumerus -22.1507 5.98826 -79.2185
rradius 115.574
rwrist 37.0736
rhand -5.79789 -8.33716
rfingers 7.12502
rthumb 20.0266 -37.3251
lclavicle -1.06101e-014 -9.24349e-015
lhumerus -26.5183 -2.23553 79.951
lradius 118.247
lwrist -28.2228
lhand -9.35957 15.5439
lfingers 7.12502
lthumb 16.6003 44.8539
rfemur -56.5184 -3.59395 20.5189
rtibia 61.8786
rfoot -27.5289 -13.8091
rtoes -14.4831
lfemur -57.2799 6.54832 -19.8697
ltibia 61.2707
lfoot -27.3845 5.57745
ltoes -13.9214
